<svg xmlns="http://www.w3.org/2000/svg" xmlns:xlink="http://www.w3.org/1999/xlink" width="500" zoomAndPan="magnify" viewBox="0 0 375 374.999991" height="500" preserveAspectRatio="xMidYMid meet" version="1.0"><defs><g/><clipPath id="a07dc45752"><path d="M 126 91.847656 L 248.921875 91.847656 L 248.921875 124 L 126 124 Z M 126 91.847656 " clip-rule="nonzero"/></clipPath><clipPath id="2bd565ee29"><path d="M 229 168 L 248.921875 168 L 248.921875 183 L 229 183 Z M 229 168 " clip-rule="nonzero"/></clipPath><clipPath id="1b2ad8f392"><path d="M 164 137 L 226 137 L 226 210.347656 L 164 210.347656 Z M 164 137 " clip-rule="nonzero"/></clipPath></defs><g clip-path="url(#a07dc45752)"><path fill="#000000" d="M 242.144531 91.847656 C 239.078125 91.847656 236.582031 93.871094 235.71875 96.660156 L 231.59375 96.660156 C 220.5625 96.660156 211.449219 105.132812 210.585938 116.105469 C 207.515625 118.511719 203.679688 119.859375 199.652344 119.765625 C 196.390625 117.453125 192.648438 116.203125 188.621094 115.914062 C 187.949219 115.914062 187.179688 115.914062 186.507812 115.914062 C 182.480469 116.105469 178.738281 117.453125 175.476562 119.765625 C 171.449219 119.859375 167.613281 118.511719 164.542969 116.105469 C 163.488281 105.132812 154.375 96.660156 143.34375 96.660156 L 139.21875 96.660156 C 138.355469 93.871094 135.859375 91.847656 132.792969 91.847656 C 129.050781 91.847656 126.078125 94.832031 126.078125 98.585938 C 126.078125 102.339844 129.050781 105.324219 132.792969 105.324219 C 135.859375 105.324219 138.355469 103.304688 139.21875 100.511719 L 143.34375 100.511719 C 152.648438 100.511719 160.226562 107.828125 160.609375 117.164062 C 160.609375 117.742188 160.898438 118.226562 161.28125 118.511719 C 165.40625 122.074219 170.683594 123.902344 176.054688 123.617188 C 176.339844 123.617188 176.628906 123.519531 176.820312 123.421875 C 176.917969 123.328125 177.011719 123.328125 177.109375 123.230469 C 179.792969 121.207031 183.054688 119.957031 186.414062 119.859375 C 186.414062 119.859375 186.507812 119.859375 186.507812 119.859375 C 187.085938 119.859375 187.660156 119.859375 188.234375 119.859375 C 188.234375 119.859375 188.234375 119.859375 188.332031 119.859375 C 191.785156 120.054688 195.046875 121.207031 197.734375 123.230469 C 197.925781 123.421875 198.210938 123.519531 198.5 123.617188 C 198.597656 123.617188 198.691406 123.617188 198.789062 123.617188 C 199.171875 123.617188 199.554688 123.617188 199.84375 123.617188 C 204.925781 123.617188 209.722656 121.785156 213.558594 118.511719 C 214.039062 118.128906 214.230469 117.550781 214.230469 116.972656 C 214.710938 107.730469 222.195312 100.609375 231.5 100.609375 L 235.625 100.609375 C 236.488281 103.398438 238.980469 105.421875 242.050781 105.421875 C 245.792969 105.421875 248.765625 102.4375 248.765625 98.683594 C 248.765625 94.929688 245.886719 91.847656 242.144531 91.847656 Z M 242.144531 91.847656 " fill-opacity="1" fill-rule="nonzero"/></g><path fill="#000000" d="M 206.75 145.660156 C 207.710938 143.636719 208.285156 141.328125 208.476562 139.015625 L 226.125 139.015625 C 226.988281 141.808594 229.484375 143.832031 232.554688 143.832031 C 236.292969 143.832031 239.269531 140.847656 239.269531 137.09375 C 239.269531 133.339844 236.292969 130.355469 232.554688 130.355469 C 229.484375 130.355469 226.988281 132.375 226.125 135.167969 L 204.734375 135.167969 L 204.734375 137.09375 C 204.734375 140.460938 203.777344 143.636719 202.144531 146.238281 C 202.527344 146.332031 202.914062 146.527344 203.199219 146.71875 C 204.351562 146.140625 205.503906 145.851562 206.75 145.660156 Z M 206.75 145.660156 " fill-opacity="1" fill-rule="nonzero"/><g clip-path="url(#2bd565ee29)"><path fill="#000000" d="M 242.144531 168.859375 C 239.078125 168.859375 236.582031 170.878906 235.71875 173.671875 L 231.59375 173.671875 C 230.828125 173.671875 229.964844 173.574219 229.195312 173.480469 L 229.003906 177.332031 C 229.867188 177.425781 230.636719 177.523438 231.5 177.523438 L 235.625 177.523438 C 236.488281 180.3125 238.980469 182.335938 242.050781 182.335938 C 245.792969 182.335938 248.765625 179.351562 248.765625 175.597656 C 248.765625 171.84375 245.886719 168.859375 242.144531 168.859375 Z M 242.144531 168.859375 " fill-opacity="1" fill-rule="nonzero"/></g><g clip-path="url(#1b2ad8f392)"><path fill="#000000" d="M 198.117188 149.414062 C 197.253906 149.414062 196.484375 149.511719 195.71875 149.800781 L 195.71875 144.792969 C 195.71875 140.558594 192.265625 137.09375 188.042969 137.09375 C 183.824219 137.09375 180.371094 140.558594 180.371094 144.792969 L 180.371094 171.265625 L 177.972656 168.378906 C 176.535156 166.546875 174.328125 165.488281 172.023438 165.488281 C 170.203125 165.488281 168.476562 166.164062 167.132812 167.320312 C 163.96875 170.015625 163.488281 174.828125 166.171875 178.101562 L 180.65625 196.003906 L 180.945312 197.546875 C 182.097656 204.957031 188.332031 210.347656 195.8125 210.347656 L 209.4375 210.347656 C 217.589844 210.347656 224.207031 203.898438 224.496094 195.714844 L 225.839844 163.179688 C 225.933594 161.0625 225.167969 159.039062 223.730469 157.597656 C 222.289062 156.054688 220.371094 155.285156 218.261719 155.285156 C 217.398438 155.285156 216.535156 155.476562 215.765625 155.765625 C 215.09375 152.207031 212.027344 149.511719 208.378906 149.511719 L 208.285156 149.511719 C 206.367188 149.511719 204.640625 150.183594 203.296875 151.433594 C 201.953125 150.28125 200.226562 149.511719 198.308594 149.511719 L 198.117188 149.511719 Z M 201.953125 157.019531 L 201.953125 168.859375 L 204.449219 168.667969 L 204.449219 157.019531 C 204.449219 154.902344 206.078125 153.265625 208.1875 153.265625 L 208.285156 153.265625 C 210.300781 153.265625 212.027344 154.902344 212.027344 157.019531 L 212.027344 168.183594 L 214.519531 167.992188 L 214.519531 162.792969 C 214.519531 160.675781 216.152344 159.039062 218.261719 159.039062 C 220.371094 159.039062 222.097656 160.773438 222 162.890625 L 220.660156 195.425781 C 220.46875 201.492188 215.480469 206.402344 209.4375 206.402344 L 195.71875 206.402344 C 190.15625 206.402344 185.453125 202.359375 184.589844 196.871094 L 184.207031 194.273438 L 169.148438 175.597656 C 167.804688 173.960938 168.09375 171.554688 169.625 170.207031 C 170.296875 169.628906 171.257812 169.339844 172.121094 169.339844 C 173.273438 169.339844 174.328125 169.820312 175.09375 170.785156 L 184.304688 182.144531 L 184.304688 144.792969 C 184.304688 142.675781 186.03125 140.941406 188.140625 140.941406 C 190.25 140.941406 191.976562 142.675781 191.976562 144.792969 L 191.976562 169.53125 L 194.472656 169.339844 L 194.472656 157.019531 C 194.472656 154.902344 196.101562 153.265625 198.210938 153.265625 L 198.308594 153.265625 C 200.226562 153.265625 201.953125 154.902344 201.953125 157.019531 Z M 201.953125 157.019531 " fill-opacity="1" fill-rule="nonzero"/></g><path fill="#000000" d="M 160.609375 157.308594 C 160.128906 166.546875 152.648438 173.671875 143.34375 173.671875 L 139.21875 173.671875 C 138.355469 170.878906 135.859375 168.859375 132.792969 168.859375 C 129.050781 168.859375 126.078125 171.84375 126.078125 175.597656 C 126.078125 179.351562 129.050781 182.335938 132.792969 182.335938 C 135.859375 182.335938 138.355469 180.3125 139.21875 177.523438 L 143.34375 177.523438 C 154.375 177.523438 163.488281 169.050781 164.351562 158.078125 C 167.421875 155.671875 171.257812 154.324219 175.285156 154.417969 C 175.574219 154.613281 175.863281 154.804688 176.148438 154.996094 C 176.148438 154.996094 176.246094 154.996094 176.246094 155.09375 C 176.339844 155.191406 176.4375 155.191406 176.535156 155.285156 L 176.535156 150.570312 C 172.695312 147.390625 170.203125 142.578125 170.203125 137.1875 L 170.203125 135.261719 L 148.8125 135.261719 C 147.949219 132.472656 145.453125 130.449219 142.382812 130.449219 C 138.644531 130.449219 135.667969 133.433594 135.667969 137.1875 C 135.667969 140.941406 138.644531 143.925781 142.382812 143.925781 C 145.453125 143.925781 147.949219 141.90625 148.8125 139.113281 L 166.460938 139.113281 C 166.84375 143.636719 168.667969 147.679688 171.449219 150.953125 C 167.707031 151.628906 164.160156 153.265625 161.183594 155.765625 C 160.800781 156.054688 160.609375 156.632812 160.609375 157.308594 Z M 160.609375 157.308594 " fill-opacity="1" fill-rule="nonzero"/><path fill="#000000" d="M 176.535156 144.792969 L 176.535156 144.3125 C 176.535156 137.957031 181.714844 132.761719 188.042969 132.761719 C 193.992188 132.761719 198.882812 137.285156 199.460938 143.15625 C 200.417969 141.328125 200.898438 139.304688 200.898438 137.09375 C 200.898438 129.679688 194.855469 123.617188 187.46875 123.617188 C 180.082031 123.617188 174.039062 129.679688 174.039062 137.09375 C 174.039062 139.980469 175 142.675781 176.535156 144.890625 Z M 176.535156 144.792969 " fill-opacity="1" fill-rule="nonzero"/><g fill="#000000" fill-opacity="1"><g transform="translate(153.618525, 246.294301)"><g><path d="M 21.375 0 L 21.34375 -13.453125 L 14.671875 -2.3125 L 12.984375 -2.3125 L 6.328125 -13.28125 L 6.328125 0 L 2.71875 0 L 2.71875 -20.296875 L 5.828125 -20.296875 L 13.890625 -6.84375 L 21.8125 -20.296875 L 24.90625 -20.296875 L 24.9375 0 Z M 21.375 0 "/></g></g></g><g fill="#000000" fill-opacity="1"><g transform="translate(182.37905, 246.294301)"><g><path d="M 19.375 -4.609375 L 15.78125 -4.609375 L 15.78125 0 L 12.125 0 L 12.125 -4.609375 L 0.984375 -4.609375 L 0.984375 -7.21875 L 10.984375 -20.296875 L 15.015625 -20.296875 L 5.59375 -7.796875 L 12.234375 -7.796875 L 12.234375 -11.890625 L 15.78125 -11.890625 L 15.78125 -7.796875 L 19.375 -7.796875 Z M 19.375 -4.609375 "/></g></g></g><g fill="#000000" fill-opacity="1"><g transform="translate(203.137742, 246.294301)"><g><path d="M 9.015625 0.296875 C 7.453125 0.296875 5.941406 0.0703125 4.484375 -0.375 C 3.023438 -0.820312 1.867188 -1.410156 1.015625 -2.140625 L 2.3125 -5.078125 C 3.144531 -4.421875 4.164062 -3.882812 5.375 -3.46875 C 6.582031 -3.050781 7.796875 -2.84375 9.015625 -2.84375 C 10.523438 -2.84375 11.648438 -3.082031 12.390625 -3.5625 C 13.140625 -4.050781 13.515625 -4.691406 13.515625 -5.484375 C 13.515625 -6.054688 13.304688 -6.53125 12.890625 -6.90625 C 12.472656 -7.289062 11.945312 -7.585938 11.3125 -7.796875 C 10.675781 -8.015625 9.804688 -8.257812 8.703125 -8.53125 C 7.148438 -8.894531 5.894531 -9.257812 4.9375 -9.625 C 3.988281 -9.988281 3.171875 -10.5625 2.484375 -11.34375 C 1.796875 -12.132812 1.453125 -13.195312 1.453125 -14.53125 C 1.453125 -15.65625 1.753906 -16.675781 2.359375 -17.59375 C 2.972656 -18.507812 3.890625 -19.238281 5.109375 -19.78125 C 6.335938 -20.320312 7.84375 -20.59375 9.625 -20.59375 C 10.863281 -20.59375 12.082031 -20.4375 13.28125 -20.125 C 14.476562 -19.8125 15.515625 -19.367188 16.390625 -18.796875 L 15.203125 -15.859375 C 14.304688 -16.378906 13.375 -16.773438 12.40625 -17.046875 C 11.445312 -17.316406 10.507812 -17.453125 9.59375 -17.453125 C 8.101562 -17.453125 6.992188 -17.203125 6.265625 -16.703125 C 5.546875 -16.203125 5.1875 -15.535156 5.1875 -14.703125 C 5.1875 -14.117188 5.394531 -13.644531 5.8125 -13.28125 C 6.226562 -12.914062 6.753906 -12.625 7.390625 -12.40625 C 8.035156 -12.195312 8.90625 -11.957031 10 -11.6875 C 11.507812 -11.34375 12.75 -10.976562 13.71875 -10.59375 C 14.6875 -10.21875 15.507812 -9.644531 16.1875 -8.875 C 16.875 -8.101562 17.21875 -7.054688 17.21875 -5.734375 C 17.21875 -4.617188 16.914062 -3.601562 16.3125 -2.6875 C 15.707031 -1.78125 14.785156 -1.054688 13.546875 -0.515625 C 12.304688 0.0234375 10.796875 0.296875 9.015625 0.296875 Z M 9.015625 0.296875 "/></g></g></g><g fill="#000000" fill-opacity="1"><g transform="translate(120.637137, 265.344271)"><g><path d="M 3.25 -8.265625 L 0.046875 -8.265625 L 0.046875 -9.09375 L 7.40625 -9.09375 L 7.40625 -8.265625 L 4.21875 -8.265625 L 4.21875 0 L 3.25 0 Z M 3.25 -8.265625 "/></g></g></g><g fill="#000000" fill-opacity="1"><g transform="translate(132.464895, 265.344271)"><g><path d="M 7.921875 -0.828125 L 7.921875 0 L 1.484375 0 L 1.484375 -9.09375 L 7.71875 -9.09375 L 7.71875 -8.265625 L 2.4375 -8.265625 L 2.4375 -5.03125 L 7.15625 -5.03125 L 7.15625 -4.21875 L 2.4375 -4.21875 L 2.4375 -0.828125 Z M 7.921875 -0.828125 "/></g></g></g><g fill="#000000" fill-opacity="1"><g transform="translate(145.527277, 265.344271)"><g><path d="M 5.4375 0.078125 C 4.53125 0.078125 3.710938 -0.117188 2.984375 -0.515625 C 2.265625 -0.921875 1.695312 -1.472656 1.28125 -2.171875 C 0.875 -2.878906 0.671875 -3.671875 0.671875 -4.546875 C 0.671875 -5.421875 0.875 -6.210938 1.28125 -6.921875 C 1.695312 -7.628906 2.269531 -8.179688 3 -8.578125 C 3.726562 -8.972656 4.546875 -9.171875 5.453125 -9.171875 C 6.128906 -9.171875 6.75 -9.054688 7.3125 -8.828125 C 7.882812 -8.609375 8.375 -8.285156 8.78125 -7.859375 L 8.15625 -7.234375 C 7.445312 -7.953125 6.550781 -8.3125 5.46875 -8.3125 C 4.75 -8.3125 4.09375 -8.144531 3.5 -7.8125 C 2.914062 -7.488281 2.457031 -7.039062 2.125 -6.46875 C 1.789062 -5.894531 1.625 -5.253906 1.625 -4.546875 C 1.625 -3.835938 1.789062 -3.195312 2.125 -2.625 C 2.457031 -2.050781 2.914062 -1.597656 3.5 -1.265625 C 4.09375 -0.941406 4.75 -0.78125 5.46875 -0.78125 C 6.5625 -0.78125 7.457031 -1.144531 8.15625 -1.875 L 8.78125 -1.265625 C 8.375 -0.828125 7.882812 -0.492188 7.3125 -0.265625 C 6.738281 -0.0351562 6.113281 0.078125 5.4375 0.078125 Z M 5.4375 0.078125 "/></g></g></g><g fill="#000000" fill-opacity="1"><g transform="translate(159.239453, 265.344271)"><g><path d="M 9.09375 -9.09375 L 9.09375 0 L 8.140625 0 L 8.140625 -4.203125 L 2.4375 -4.203125 L 2.4375 0 L 1.484375 0 L 1.484375 -9.09375 L 2.4375 -9.09375 L 2.4375 -5.046875 L 8.140625 -5.046875 L 8.140625 -9.09375 Z M 9.09375 -9.09375 "/></g></g></g><g fill="#000000" fill-opacity="1"><g transform="translate(174.173254, 265.344271)"><g><path d="M 9.09375 -9.09375 L 9.09375 0 L 8.296875 0 L 2.4375 -7.390625 L 2.4375 0 L 1.484375 0 L 1.484375 -9.09375 L 2.28125 -9.09375 L 8.140625 -1.71875 L 8.140625 -9.09375 Z M 9.09375 -9.09375 "/></g></g></g><g fill="#000000" fill-opacity="1"><g transform="translate(189.107055, 265.344271)"><g><path d="M 5.453125 0.078125 C 4.554688 0.078125 3.738281 -0.117188 3 -0.515625 C 2.269531 -0.921875 1.695312 -1.472656 1.28125 -2.171875 C 0.875 -2.878906 0.671875 -3.671875 0.671875 -4.546875 C 0.671875 -5.421875 0.875 -6.207031 1.28125 -6.90625 C 1.695312 -7.613281 2.269531 -8.164062 3 -8.5625 C 3.738281 -8.96875 4.554688 -9.171875 5.453125 -9.171875 C 6.359375 -9.171875 7.171875 -8.972656 7.890625 -8.578125 C 8.617188 -8.179688 9.191406 -7.628906 9.609375 -6.921875 C 10.023438 -6.210938 10.234375 -5.421875 10.234375 -4.546875 C 10.234375 -3.671875 10.023438 -2.878906 9.609375 -2.171875 C 9.191406 -1.472656 8.617188 -0.921875 7.890625 -0.515625 C 7.171875 -0.117188 6.359375 0.078125 5.453125 0.078125 Z M 5.453125 -0.78125 C 6.171875 -0.78125 6.820312 -0.941406 7.40625 -1.265625 C 7.988281 -1.585938 8.441406 -2.035156 8.765625 -2.609375 C 9.097656 -3.191406 9.265625 -3.835938 9.265625 -4.546875 C 9.265625 -5.253906 9.097656 -5.894531 8.765625 -6.46875 C 8.441406 -7.050781 7.988281 -7.503906 7.40625 -7.828125 C 6.820312 -8.148438 6.171875 -8.3125 5.453125 -8.3125 C 4.734375 -8.3125 4.082031 -8.148438 3.5 -7.828125 C 2.914062 -7.503906 2.457031 -7.050781 2.125 -6.46875 C 1.789062 -5.894531 1.625 -5.253906 1.625 -4.546875 C 1.625 -3.835938 1.789062 -3.191406 2.125 -2.609375 C 2.457031 -2.035156 2.914062 -1.585938 3.5 -1.265625 C 4.082031 -0.941406 4.734375 -0.78125 5.453125 -0.78125 Z M 5.453125 -0.78125 "/></g></g></g><g fill="#000000" fill-opacity="1"><g transform="translate(204.378754, 265.344271)"><g><path d="M 1.484375 -9.09375 L 2.4375 -9.09375 L 2.4375 -0.828125 L 7.546875 -0.828125 L 7.546875 0 L 1.484375 0 Z M 1.484375 -9.09375 "/></g></g></g><g fill="#000000" fill-opacity="1"><g transform="translate(216.401452, 265.344271)"><g><path d="M 5.453125 0.078125 C 4.554688 0.078125 3.738281 -0.117188 3 -0.515625 C 2.269531 -0.921875 1.695312 -1.472656 1.28125 -2.171875 C 0.875 -2.878906 0.671875 -3.671875 0.671875 -4.546875 C 0.671875 -5.421875 0.875 -6.207031 1.28125 -6.90625 C 1.695312 -7.613281 2.269531 -8.164062 3 -8.5625 C 3.738281 -8.96875 4.554688 -9.171875 5.453125 -9.171875 C 6.359375 -9.171875 7.171875 -8.972656 7.890625 -8.578125 C 8.617188 -8.179688 9.191406 -7.628906 9.609375 -6.921875 C 10.023438 -6.210938 10.234375 -5.421875 10.234375 -4.546875 C 10.234375 -3.671875 10.023438 -2.878906 9.609375 -2.171875 C 9.191406 -1.472656 8.617188 -0.921875 7.890625 -0.515625 C 7.171875 -0.117188 6.359375 0.078125 5.453125 0.078125 Z M 5.453125 -0.78125 C 6.171875 -0.78125 6.820312 -0.941406 7.40625 -1.265625 C 7.988281 -1.585938 8.441406 -2.035156 8.765625 -2.609375 C 9.097656 -3.191406 9.265625 -3.835938 9.265625 -4.546875 C 9.265625 -5.253906 9.097656 -5.894531 8.765625 -6.46875 C 8.441406 -7.050781 7.988281 -7.503906 7.40625 -7.828125 C 6.820312 -8.148438 6.171875 -8.3125 5.453125 -8.3125 C 4.734375 -8.3125 4.082031 -8.148438 3.5 -7.828125 C 2.914062 -7.503906 2.457031 -7.050781 2.125 -6.46875 C 1.789062 -5.894531 1.625 -5.253906 1.625 -4.546875 C 1.625 -3.835938 1.789062 -3.191406 2.125 -2.609375 C 2.457031 -2.035156 2.914062 -1.585938 3.5 -1.265625 C 4.082031 -0.941406 4.734375 -0.78125 5.453125 -0.78125 Z M 5.453125 -0.78125 "/></g></g></g><g fill="#000000" fill-opacity="1"><g transform="translate(231.673146, 265.344271)"><g><path d="M 7.890625 -4.546875 L 8.8125 -4.546875 L 8.8125 -1.078125 C 8.382812 -0.703125 7.878906 -0.414062 7.296875 -0.21875 C 6.722656 -0.0195312 6.113281 0.078125 5.46875 0.078125 C 4.5625 0.078125 3.742188 -0.117188 3.015625 -0.515625 C 2.285156 -0.921875 1.710938 -1.472656 1.296875 -2.171875 C 0.878906 -2.878906 0.671875 -3.671875 0.671875 -4.546875 C 0.671875 -5.421875 0.878906 -6.210938 1.296875 -6.921875 C 1.710938 -7.628906 2.285156 -8.179688 3.015625 -8.578125 C 3.742188 -8.972656 4.566406 -9.171875 5.484375 -9.171875 C 6.179688 -9.171875 6.816406 -9.0625 7.390625 -8.84375 C 7.972656 -8.625 8.460938 -8.296875 8.859375 -7.859375 L 8.265625 -7.25 C 7.546875 -7.957031 6.632812 -8.3125 5.53125 -8.3125 C 4.789062 -8.3125 4.125 -8.148438 3.53125 -7.828125 C 2.9375 -7.503906 2.46875 -7.050781 2.125 -6.46875 C 1.789062 -5.894531 1.625 -5.253906 1.625 -4.546875 C 1.625 -3.835938 1.789062 -3.195312 2.125 -2.625 C 2.46875 -2.050781 2.929688 -1.597656 3.515625 -1.265625 C 4.109375 -0.941406 4.773438 -0.78125 5.515625 -0.78125 C 6.453125 -0.78125 7.242188 -1.015625 7.890625 -1.484375 Z M 7.890625 -4.546875 "/></g></g></g><g fill="#000000" fill-opacity="1"><g transform="translate(246.087105, 265.344271)"><g><path d="M 4.609375 -3.140625 L 4.609375 0 L 3.65625 0 L 3.65625 -3.140625 L 0.015625 -9.09375 L 1.046875 -9.09375 L 4.15625 -3.984375 L 7.28125 -9.09375 L 8.234375 -9.09375 Z M 4.609375 -3.140625 "/></g></g></g></svg>